<svg xmlns="http://www.w3.org/2000/svg" width="68" height="72" viewBox="0 0 68 72" shape-rendering="crispEdges"><rect width="68" height="72" fill="none"/><path fill="#86c88b" stroke="#2d6338" stroke-width="2" d="M24 13 15 8l-5 7 7 6C8 25 7 43 15 51l8 4-3 11h8l6-9 6 9h8l-4-12c10-8 8-27-2-34l7-6-5-7-10 6z"/><path fill="#477e4d" d="m20 16 6 4-5 6-7-4zm24 0-7 4 5 6 7-4z"/><path fill="#9bd99b" d="m27 11 7 5 8-5-2 12-7 6-7-6z"/><circle cx="22" cy="34" r="3" fill="#1f3f2a"/><circle cx="43" cy="34" r="3" fill="#1f3f2a"/><path d="M27 46h14" fill="none" stroke="#2d6338" stroke-width="2"/></svg>